<?xml version="1.0" encoding="UTF-8"?>
<!DOCTYPE svg PUBLIC "-//W3C//DTD SVG 1.1//EN" "http://www.w3.org/Graphics/SVG/1.1/DTD/svg11.dtd">
<!-- Creator: CorelDRAW 2017 -->
<svg xmlns="http://www.w3.org/2000/svg" xml:space="preserve" width="2480px" height="2480px" version="1.1" style="shape-rendering:geometricPrecision; text-rendering:geometricPrecision; image-rendering:optimizeQuality; fill-rule:evenodd; clip-rule:evenodd"
viewBox="0 0 2480 2480"
 xmlns:xlink="http://www.w3.org/1999/xlink">
 <defs>
  <style type="text/css">
   <![CDATA[
    .fil3 {fill:#720C7D;fill-rule:nonzero}
    .fil0 {fill:#FF22BC;fill-rule:nonzero}
    .fil1 {fill:white;fill-rule:nonzero}
    .fil2 {fill:url(#id0);fill-rule:nonzero}
    .fil4 {fill:url(#id1);fill-rule:nonzero}
   ]]>
  </style>
  <linearGradient id="id0" gradientUnits="userSpaceOnUse" x1="1360.55" y1="1390.64" x2="1524.9" y2="440.26">
   <stop offset="0" style="stop-opacity:1; stop-color:#C300FF"/>
   <stop offset="0.470588" style="stop-opacity:1; stop-color:fuchsia"/>
   <stop offset="1" style="stop-opacity:1; stop-color:#FF3399"/>
  </linearGradient>
  <linearGradient id="id1" gradientUnits="objectBoundingBox" xlink:href="#id0" x1="12.9719%" y1="16.401%" x2="87.028%" y2="83.5993%">
  </linearGradient>
 </defs>
 <g id="Layer_x0020_1">
  <metadata id="CorelCorpID_0Corel-Layer"/>
  <g id="_2266797533984">
   <path class="fil0" d="M224.3 1991.97l0 -91.18 18.25 0 0 34.61 44.47 0 0 -34.61 18.09 0 0 94.78 -18.09 0 0 -42.9 -44.47 0 0 42.9 -18.25 0 0 -3.6zm209.71 -11.56c8.82,0 16.11,-2.99 21.87,-8.96 2.88,-3.01 5.04,-6.41 6.47,-10.21 1.46,-3.84 2.18,-8.13 2.18,-12.87 0,-4.75 -0.72,-9.06 -2.17,-12.91 -1.44,-3.81 -3.6,-7.23 -6.47,-10.24 -2.86,-2.99 -6.09,-5.22 -9.7,-6.71 -3.63,-1.49 -7.69,-2.24 -12.18,-2.24 -4.45,0 -8.48,0.75 -12.1,2.25 -3.62,1.49 -6.87,3.75 -9.76,6.76 -2.89,3.02 -5.05,6.44 -6.49,10.24 -1.45,3.84 -2.18,8.12 -2.18,12.85 0,9.36 2.89,17.06 8.66,23.08 2.89,2.99 6.14,5.24 9.74,6.72 3.62,1.49 7.67,2.24 12.13,2.24zm-0.03 17.43c-7,0 -13.43,-1.17 -19.3,-3.51 -5.89,-2.35 -11.14,-5.87 -15.76,-10.54 -4.6,-4.67 -8.07,-9.98 -10.39,-15.93 -2.3,-5.92 -3.46,-12.42 -3.46,-19.49 0,-7.11 1.16,-13.63 3.47,-19.55 2.32,-5.95 5.81,-11.27 10.45,-15.94 4.63,-4.67 9.87,-8.18 15.74,-10.53 5.85,-2.34 12.27,-3.51 19.25,-3.51 6.99,0 13.42,1.17 19.3,3.52 5.91,2.36 11.19,5.88 15.85,10.57 4.66,4.69 8.16,10.01 10.49,15.95 2.32,5.92 3.49,12.41 3.49,19.49 0,7.09 -1.17,13.59 -3.48,19.51 -2.33,5.94 -5.83,11.25 -10.47,15.92 -4.64,4.67 -9.92,8.18 -15.83,10.53 -5.88,2.34 -12.34,3.51 -19.35,3.51zm170.66 -17.43c8.82,0 16.11,-2.99 21.87,-8.96 2.88,-3.01 5.04,-6.41 6.48,-10.21 1.45,-3.84 2.18,-8.13 2.18,-12.87 0,-4.75 -0.73,-9.06 -2.18,-12.91 -1.43,-3.81 -3.59,-7.23 -6.47,-10.24 -2.85,-2.99 -6.09,-5.22 -9.7,-6.71 -3.62,-1.49 -7.69,-2.24 -12.18,-2.24 -4.44,0 -8.48,0.75 -12.1,2.25 -3.61,1.49 -6.86,3.75 -9.75,6.76 -2.89,3.02 -5.06,6.44 -6.49,10.24 -1.46,3.84 -2.18,8.12 -2.18,12.85 0,9.36 2.88,17.06 8.65,23.08 2.89,2.99 6.14,5.24 9.75,6.72 3.62,1.49 7.66,2.24 12.12,2.24zm-0.03 17.43c-7,0 -13.43,-1.17 -19.29,-3.51 -5.89,-2.35 -11.15,-5.87 -15.76,-10.54 -4.61,-4.67 -8.08,-9.98 -10.39,-15.93 -2.31,-5.92 -3.46,-12.42 -3.46,-19.49 0,-7.11 1.15,-13.63 3.47,-19.55 2.32,-5.95 5.8,-11.27 10.45,-15.94 4.62,-4.67 9.87,-8.18 15.73,-10.53 5.85,-2.34 12.27,-3.51 19.25,-3.51 6.99,0 13.42,1.17 19.31,3.52 5.9,2.36 11.19,5.88 15.85,10.57 4.65,4.69 8.15,10.01 10.49,15.95 2.32,5.92 3.48,12.41 3.48,19.49 0,7.09 -1.16,13.59 -3.48,19.51 -2.33,5.94 -5.82,11.25 -10.47,15.92 -4.63,4.67 -9.91,8.18 -15.82,10.53 -5.89,2.34 -12.34,3.51 -19.36,3.51zm128.72 -5.87l0 -91.34 18.08 0 0 39.41 45.29 -39.41 25.15 0 -40.11 35.32 42.96 59.62 -22.01 0 -34.27 -47.38 -17.01 14.28 0 33.1 -18.08 0 0 -3.6zm181.53 -37.4l26.97 0 -13.54 -27.11 -13.43 27.11zm-37.25 35.83l43.92 -89.61 13.49 0 46.98 94.78 -19.83 0 -11.89 -23.56 -43.96 0 -11.59 23.56 -19.66 0 2.54 -5.17zm175.94 1.57l0 -91.18 18.25 0 0 34.61 44.47 0 0 -34.61 18.09 0 0 94.78 -18.09 0 0 -42.9 -44.47 0 0 42.9 -18.25 0 0 -3.6zm313.44 -20.11l-22.88 -26.86c-2.42,1.15 -4.58,2.36 -6.47,3.62 -2.43,1.63 -4.44,3.35 -6.03,5.18 -1.54,1.78 -2.67,3.63 -3.41,5.55 -0.73,1.89 -1.1,3.93 -1.1,6.11 0,2.29 0.39,4.34 1.15,6.13 0.76,1.77 1.91,3.34 3.44,4.71 1.57,1.4 3.38,2.46 5.45,3.17 2.14,0.73 4.58,1.1 7.3,1.1 2.12,0 4.22,-0.22 6.29,-0.66 2.12,-0.45 4.23,-1.12 6.33,-2.02 2.1,-0.9 4.21,-2.04 6.31,-3.42 1.21,-0.79 2.42,-1.66 3.62,-2.61zm31.25 -6.03c-0.62,0.86 -1.32,1.76 -2.08,2.7 -0.72,0.88 -1.42,1.71 -2.12,2.47 -0.71,0.81 -1.51,1.65 -2.39,2.51l18.52 21.41 -23.43 0 -8.6 -9.69c-2.14,1.66 -4.24,3.14 -6.31,4.45 -3.01,1.9 -5.95,3.46 -8.8,4.65 -2.9,1.23 -5.89,2.14 -8.96,2.76 -3.07,0.61 -6.21,0.92 -9.44,0.92 -5.31,0 -10.13,-0.71 -14.46,-2.13 -4.41,-1.45 -8.29,-3.63 -11.64,-6.53l-0.01 -0.02c-3.39,-2.95 -5.93,-6.39 -7.63,-10.33 -1.68,-3.91 -2.52,-8.26 -2.52,-13.05 0,-3.83 0.61,-7.47 1.82,-10.93 1.2,-3.46 3,-6.68 5.39,-9.67 2.32,-2.93 5.28,-5.72 8.85,-8.37 2.45,-1.81 5.19,-3.56 8.21,-5.23l-26.13 -30.96 67.2 0 10.58 16.78 -39.86 0 35.31 41.62 0.08 -0.09c0.91,-0.93 1.71,-1.78 2.38,-2.52 0.58,-0.63 1.15,-1.28 1.71,-1.96 0.49,-0.61 1.01,-1.27 1.53,-1.98l2.81 -3.83 11.57 14.84 -1.58 2.18zm169.33 26.14l0 -91.18 15.6 0 33.51 50.72 33.66 -50.72 15.43 0 0 94.78 -17.92 0 0 -60.19 -31.18 46.45 -31.17 -46.44 0 60.18 -17.93 0 0 -3.6zm200.1 -87.58l0 56.71c0,4.22 0.38,7.69 1.14,10.4 0.66,2.39 1.6,4.13 2.8,5.22 1.23,1.12 3.22,2 5.96,2.63 3.07,0.71 6.98,1.06 11.74,1.06 4.74,0 8.65,-0.35 11.71,-1.06 2.73,-0.63 4.71,-1.51 5.94,-2.63 1.18,-1.1 2.11,-2.83 2.76,-5.2 0.75,-2.71 1.12,-6.18 1.12,-10.42l0 -60.31 18.09 0 0 63.23c0,5.79 -0.78,10.83 -2.32,15.11 -1.63,4.49 -4.08,8.11 -7.37,10.86 -3.22,2.69 -7.41,4.69 -12.56,5.99 -4.91,1.25 -10.72,1.86 -17.42,1.86 -6.71,0 -12.51,-0.62 -17.43,-1.86 -5.14,-1.3 -9.33,-3.3 -12.56,-5.99 -3.29,-2.76 -5.75,-6.38 -7.37,-10.86 -1.54,-4.29 -2.32,-9.33 -2.32,-15.11l0 -63.23 18.09 0 0 3.6zm138.22 72.38l8.48 -12.57 3.03 2.34c2.96,2.3 5.99,4.32 9.06,6.06 3.04,1.73 6.16,3.2 9.36,4.42 3.15,1.19 6.28,2.08 9.39,2.67 3.07,0.59 6.14,0.88 9.21,0.88 3.78,0 7.15,-0.38 10.12,-1.16 2.86,-0.74 5.39,-1.86 7.57,-3.35 2.07,-1.4 3.6,-2.97 4.6,-4.71 0.94,-1.65 1.41,-3.51 1.41,-5.57 0,-1.57 -0.32,-2.97 -0.95,-4.2 -0.66,-1.28 -1.69,-2.45 -3.07,-3.51 -1.49,-1.12 -3.3,-2.04 -5.43,-2.74 -2.24,-0.74 -4.81,-1.24 -7.72,-1.48l-0.07 -0.02c-0.7,-0.07 -1.64,-0.15 -2.83,-0.23 -1.18,-0.08 -2.41,-0.16 -3.62,-0.21l-0.1 0c-7.33,-0.52 -13.5,-1.22 -18.52,-2.08 -5.21,-0.9 -9.26,-2.01 -12.17,-3.32l-0.08 -0.04c-2.29,-1.12 -4.33,-2.4 -6.1,-3.84 -1.82,-1.49 -3.36,-3.14 -4.6,-4.96 -1.26,-1.87 -2.21,-3.84 -2.84,-5.92 -0.64,-2.08 -0.96,-4.26 -0.96,-6.56 0,-4.12 0.93,-7.9 2.79,-11.34 1.85,-3.38 4.57,-6.38 8.15,-8.98 3.48,-2.52 7.48,-4.41 12,-5.66 4.42,-1.24 9.3,-1.85 14.62,-1.85 3.81,0 7.64,0.32 11.47,0.95 3.8,0.63 7.58,1.58 11.32,2.85 3.73,1.26 7.38,2.83 10.93,4.7 3.54,1.87 6.99,4.04 10.33,6.5l2.82 2.08 -10.53 15.13 -3 -2.42c-2.57,-2.06 -5.19,-3.87 -7.87,-5.42 -2.67,-1.54 -5.39,-2.83 -8.15,-3.86 -2.82,-1.04 -5.65,-1.81 -8.46,-2.32 -2.8,-0.5 -5.69,-0.76 -8.67,-0.76 -3.02,0 -5.77,0.3 -8.21,0.88 -2.39,0.56 -4.49,1.39 -6.31,2.48 -1.67,1 -2.89,2.08 -3.66,3.25 -0.66,1 -1,2.11 -1,3.34 0,0.48 0.05,0.92 0.15,1.32 0.09,0.39 0.25,0.79 0.46,1.19 0.2,0.38 0.48,0.77 0.82,1.16 0.37,0.43 0.84,0.86 1.39,1.3 1.41,1.02 3.78,1.9 7.12,2.63 3.68,0.82 8.42,1.4 14.22,1.76 2.92,0.17 5.4,0.33 7.39,0.49 2.2,0.17 4.08,0.36 5.62,0.55 4.76,0.54 9.04,1.59 12.85,3.13 3.9,1.57 7.31,3.69 10.24,6.34 2.96,2.68 5.19,5.71 6.69,9.06 1.52,3.37 2.27,7.03 2.27,10.96 0,4.67 -1.03,8.97 -3.09,12.87 -2.03,3.84 -5.04,7.25 -9.04,10.21 -3.92,2.91 -8.43,5.09 -13.52,6.53 -4.99,1.41 -10.54,2.12 -16.62,2.12 -4.48,0 -8.87,-0.33 -13.16,-1 -4.27,-0.67 -8.38,-1.66 -12.3,-2.98 -3.93,-1.33 -7.78,-3.03 -11.54,-5.08 -3.75,-2.04 -7.38,-4.42 -10.91,-7.16l-2.66 -2.07 1.88 -2.78zm172.56 15.2l0 -91.67 18.24 0 0 95.27 -18.24 0 0 -3.6zm180.62 -30.83l11.24 8.33 -1.43 2.73c-2.15,4.08 -4.73,7.72 -7.7,10.89 -2.99,3.17 -6.38,5.88 -10.18,8.1 -3.77,2.21 -7.81,3.88 -12.11,4.99 -4.29,1.11 -8.8,1.66 -13.51,1.66 -6.99,0 -13.41,-1.17 -19.28,-3.51 -5.89,-2.35 -11.15,-5.86 -15.77,-10.53l-0.01 -0.01c-4.6,-4.67 -8.07,-9.98 -10.39,-15.93 -2.3,-5.92 -3.46,-12.42 -3.46,-19.49 0,-7.09 1.16,-13.61 3.47,-19.53 2.32,-5.97 5.8,-11.29 10.42,-15.96 4.64,-4.67 9.89,-8.18 15.76,-10.53 5.85,-2.34 12.26,-3.51 19.23,-3.51 4.3,0 8.45,0.48 12.46,1.44 3.99,0.95 7.79,2.39 11.38,4.3 3.62,1.93 6.89,4.26 9.81,6.99 2.93,2.72 5.52,5.87 7.78,9.41l1.83 2.88 -15.25 10.86 -1.91 -3.65c-1.2,-2.29 -2.68,-4.35 -4.44,-6.17 -1.74,-1.8 -3.76,-3.36 -6.04,-4.66 -2.3,-1.31 -4.75,-2.3 -7.35,-2.97 -2.6,-0.66 -5.35,-1 -8.24,-1 -4.45,0 -8.49,0.76 -12.11,2.25 -3.61,1.5 -6.85,3.76 -9.72,6.76 -2.89,3.02 -5.05,6.44 -6.49,10.24 -1.45,3.84 -2.18,8.12 -2.18,12.85 0,9.36 2.89,17.06 8.66,23.08 2.87,2.99 6.12,5.24 9.72,6.72 3.61,1.49 7.66,2.24 12.12,2.24 3.14,0 6.06,-0.38 8.78,-1.13 2.68,-0.75 5.22,-1.89 7.6,-3.4 2.39,-1.51 4.57,-3.39 6.55,-5.61 2.04,-2.29 3.86,-4.93 5.46,-7.93l1.95 -3.68 3.35 2.48z"/>
   <path class="fil1" d="M637.02 1803.18c-38.89,0 -70.97,-11.01 -96.06,-33.04 -25.09,-21.95 -37.68,-49.57 -37.68,-82.88 0,-33.39 12.5,-61.01 37.5,-82.78 25.09,-21.77 57.18,-32.6 96.24,-32.6 39.44,0 71.69,10.83 96.78,32.52 25,21.67 37.5,49.3 37.5,82.86 0,33.48 -12.59,61.11 -37.68,83.05 -25.09,21.94 -57.25,32.87 -96.6,32.87zm1236.65 -107.52l-56.12 0 0 69.23 153.15 0 31.47 31.47 -218.71 0 0 -132.17 121.68 0 -31.47 31.47zm317.21 -40.31l0 -2.45 0 -206.29 -32.53 -32.53 0 241.27c0,44.32 13.22,80.43 39.44,107.53 26.21,27.08 60.49,40.82 102.7,40.82 42.49,0 76.63,-13.38 102.19,-40.13 25.62,-26.79 38.38,-62.87 38.38,-108.22l0 -130.02 -32.51 -32.53 0 160.1 0 2.45c0,34.79 -9.8,62.24 -29.3,82.17 -19.57,20.02 -45.97,29.99 -79.28,29.99 -32.78,0 -59.18,-10.15 -79.11,-30.51 -20.01,-20.28 -29.98,-47.55 -29.98,-81.65zm-1922.77 -109.17l-2.45 0 -206.3 0 -32.52 -32.53 241.27 0c44.32,0 80.43,13.22 107.52,39.44 27.09,26.21 40.82,60.48 40.82,102.7 0,42.49 -13.37,76.62 -40.12,102.19 -26.79,25.62 -62.88,38.38 -108.22,38.38l-130.03 0 -32.52 -32.51 160.1 0 2.45 0c34.79,0 62.23,-9.81 82.17,-29.3 20.02,-19.57 29.98,-45.97 29.98,-79.28 0,-32.78 -10.13,-59.18 -30.51,-79.11 -20.28,-20.01 -47.55,-29.98 -81.64,-29.98zm624.11 31.99l0 140.04c0,20.97 4.98,35.14 14.86,42.48 9.88,7.35 29.55,11.02 59.01,11.02 29.54,0 49.3,-3.67 59.18,-11.02 9.87,-7.34 14.86,-21.5 14.86,-42.48l0 -142.66 34.09 34.09 0 117.49c0,26.83 -8.48,46.15 -25.44,58.13 -17.04,11.97 -44.66,17.92 -83.13,17.92 -38.2,0 -65.74,-5.86 -82.43,-17.66 -16.7,-11.8 -25.09,-31.2 -25.09,-58.39l0 -148.96 0 -34.09 34.1 34.09 -0.01 0zm634.68 31.47l0 155.25 153.15 0 31.46 31.47 -218.71 0 0 -220.81 34.1 34.09zm224.56 -31.99l246.52 0 -32 31.99 -182.52 0 -32 -31.99zm-573.89 31.99l-31.47 -31.47 166.79 0c22.21,0 39.07,4.54 50.53,13.72 11.45,9.1 17.14,22.56 17.14,40.21 0,8.92 -1.75,16.79 -5.34,23.69 -3.59,6.91 -8.83,12.51 -15.65,16.79 12.16,6.81 21.33,15.12 27.45,24.99 6.21,9.8 9.27,20.9 9.27,33.14 0,20.36 -6.82,36.36 -20.37,48.08 -13.63,11.71 -32.43,17.57 -56.39,17.57l-140.91 0 0 -135.32c44.59,0 89.17,0 133.75,0 10.93,0 19.14,-2.18 24.74,-6.55 5.51,-4.29 8.3,-10.76 8.3,-19.32 0,-8.49 -2.79,-14.86 -8.3,-19.15 -5.6,-4.28 -13.99,-6.38 -25.27,-6.38 -44.76,0 -89.51,0 -134.27,0zm145.82 83.4l-110.68 0 0 71.85 110.68 0c11.97,0 21.24,-3.15 27.88,-9.53 6.56,-6.29 9.88,-15.21 9.88,-26.66 0,-11.28 -3.32,-20.02 -9.88,-26.32 -6.64,-6.19 -15.91,-9.34 -27.88,-9.34zm-686.37 78.14c29.21,0 53.07,-7.86 71.51,-23.68 18.45,-15.74 27.63,-35.85 27.63,-60.24 0,-24.21 -9.27,-44.23 -27.8,-60.13 -18.53,-15.83 -42.31,-23.78 -71.34,-23.78 -29.01,0 -52.7,7.87 -71.06,23.69 -18.36,15.73 -27.53,35.83 -27.53,60.22 0,24.39 9.17,44.5 27.53,60.24 18.36,15.82 42.05,23.68 71.06,23.68z"/>
   <g>
    <path class="fil2" d="M1673.02 1095.73l0 -5.18 0 -600.49 68.83 -68.82 0 674.49c0,93.93 -27.9,170.15 -83.44,227.54 -55.54,57.39 -128.02,86.39 -217.35,86.39 -89.91,0 -162.36,-28.52 -216.25,-84.92 -53.98,-56.47 -81.21,-133.04 -81.21,-229.01l0 -605.69 68.8 -68.8 0 669.31 0 5.18c0,73.62 20.74,131.71 61.99,173.89 41.42,42.36 97.3,63.45 167.77,63.45 69.37,0 125.24,-21.46 167.42,-64.57 42.35,-42.91 63.44,-100.61 63.44,-172.77z"/>
    <path class="fil3" d="M1258.99 1354.95c-8.23,-6.1 -16.13,-12.7 -23.69,-19.8 7.84,-6.44 15.34,-13.4 22.49,-20.88 10.18,-10.66 19.36,-22.08 27.53,-34.26 7.67,6.76 15.77,12.87 24.31,18.34 -8.88,13.07 -18.83,25.36 -29.82,36.87 -6.67,6.98 -13.61,13.56 -20.82,19.73zm-53.65 -52.95c-6.15,-8.06 -11.85,-16.45 -17.08,-25.18 7.05,-5.4 13.74,-11.33 20.06,-17.79 11.77,-12.03 21.74,-25.49 29.9,-40.34 5.17,10.36 11.12,20.13 17.83,29.31 -7.59,11.54 -16.24,22.29 -25.95,32.22 -7.78,7.95 -16.03,15.21 -24.76,21.78z"/>
    <path class="fil4" d="M820.58 1095.73l0 -5.18 0 -600.49 -68.82 -68.82 0 674.49c0,93.93 27.89,170.15 83.43,227.54 55.54,57.39 128.02,86.39 217.36,86.39 89.9,0 162.35,-28.52 216.25,-84.92 53.97,-56.47 81.2,-133.04 81.2,-229.01l0 -605.69 -68.8 -68.8 0 669.31 0 5.18c0,73.62 -20.73,131.71 -61.99,173.89 -41.42,42.36 -97.29,63.45 -167.76,63.45 -69.37,0 -125.25,-21.46 -167.42,-64.57 -42.36,-42.91 -63.45,-100.61 -63.45,-172.77z"/>
    <path class="fil4" d="M820.58 1095.73l0 -5.18 0 -600.49 -68.82 -68.82 0 674.49c0,93.93 27.89,170.15 83.43,227.54 55.54,57.39 128.02,86.39 217.36,86.39 89.9,0 162.35,-28.52 216.25,-84.92 53.97,-56.47 81.2,-133.04 81.2,-229.01l0 -605.69 -68.8 -68.8 0 669.31 0 5.18c0,73.62 -20.73,131.71 -61.99,173.89 -41.42,42.36 -97.29,63.45 -167.76,63.45 -69.37,0 -125.25,-21.46 -167.42,-64.57 -42.36,-42.91 -63.45,-100.61 -63.45,-172.77z"/>
   </g>
  </g>
 </g>
</svg>
